<svg xmlns="http://www.w3.org/2000/svg" xmlns:xlink="http://www.w3.org/1999/xlink" width="157.146" height="40" viewBox="0 0 157.146 40"><defs><style>.a{fill:#121312;}.b{opacity:0.3;}.c{fill:none;}.d{clip-path:url(#a);}</style><clipPath id="a"><rect class="a" width="157.146" height="40"/></clipPath></defs><g class="b" transform="translate(-736 -1217)"><rect class="c" width="157" height="40" transform="translate(736 1217)"/><g transform="translate(736 1217)"><g class="d"><path class="a" d="M471.945,156.8a1.811,1.811,0,0,1,.939.228,2.367,2.367,0,0,1,.749.891l4.864,8.827a.3.3,0,0,1,.028.247c-.028.066-.095.095-.209.095h-1.868a.336.336,0,0,1-.332-.19l-1.043-1.887h-6.9l-1.015,1.887a.338.338,0,0,1-.332.19h-1.906c-.133,0-.209-.038-.228-.095a.31.31,0,0,1,.038-.247l4.816-8.827a2.445,2.445,0,0,1,.721-.891,1.465,1.465,0,0,1,.815-.228Zm-2.854,6.485h5.053l-2.332-4.3a.186.186,0,0,0-.161-.1h-.095a.186.186,0,0,0-.161.1Z" transform="translate(-420.624 -141.934)"/><path class="a" d="M643.534,156.71a3.253,3.253,0,0,1,2.418.758,3.152,3.152,0,0,1,.74,2.256v.834a3.453,3.453,0,0,1-.512,2,2.422,2.422,0,0,1-1.678.939l2.512,3.11a.21.21,0,0,1,.038.218c-.019.095-.095.142-.237.142h-1.887a.785.785,0,0,1-.265-.038,1,1,0,0,1-.142-.142l-2.323-3.053h-4.75v2.92a.286.286,0,0,1-.322.322h-1.593c-.227,0-.332-.1-.332-.322v-9.509a.393.393,0,0,1,.446-.446Zm-6.077,5.243h5.622a1.384,1.384,0,0,0,1.052-.322,1.353,1.353,0,0,0,.313-.986v-.616a1.368,1.368,0,0,0-.313-.986,1.454,1.454,0,0,0-1.052-.322h-5.433c-.133,0-.19.057-.19.18Z" transform="translate(-574.977 -141.843)"/><path class="a" d="M800.912,156.8a3.121,3.121,0,0,1,2.152.607,2.374,2.374,0,0,1,.635,1.82v.7a2.122,2.122,0,0,1-.939,1.868,2.023,2.023,0,0,1,1.014,1.887v.853a3.594,3.594,0,0,1-.133,1.052,1.859,1.859,0,0,1-1.242,1.318,3.8,3.8,0,0,1-1.232.18h-8.723a.393.393,0,0,1-.446-.446v-9.4a.393.393,0,0,1,.446-.446Zm-6.656,4.266h6.02a1.655,1.655,0,0,0,1-.218.772.772,0,0,0,.266-.645v-.5a.844.844,0,0,0-.256-.673,1.3,1.3,0,0,0-.825-.209h-6.011a.166.166,0,0,0-.19.19Zm0,1.6v2.19a.166.166,0,0,0,.19.19h6.02a1.341,1.341,0,0,0,.834-.209.858.858,0,0,0,.256-.683V163.6a.871.871,0,0,0-.266-.683,1.6,1.6,0,0,0-1.005-.237Z" transform="translate(-716.911 -141.934)"/><path class="a" d="M955.525,156.8a.286.286,0,0,1,.322.322v9.633a.286.286,0,0,1-.322.322h-1.593c-.228,0-.332-.1-.332-.322v-9.633a.293.293,0,0,1,.332-.322Z" transform="translate(-863.19 -141.934)"/><path class="a" d="M1023.594,156.8c.228,0,.332.1.332.322v1.441a.292.292,0,0,1-.332.332h-4.608v7.86a.286.286,0,0,1-.323.322h-1.6a.286.286,0,0,1-.322-.322V158.9h-4.608a.292.292,0,0,1-.332-.332v-1.441a.293.293,0,0,1,.332-.322Z" transform="translate(-915.872 -141.934)"/><path class="a" d="M1179.134,156.71a3.292,3.292,0,0,1,2.427.758,3.11,3.11,0,0,1,.74,2.256v.834a3.454,3.454,0,0,1-.512,2,2.422,2.422,0,0,1-1.678.939l2.512,3.11a.21.21,0,0,1,.038.218c-.019.095-.095.142-.237.142h-1.887a.786.786,0,0,1-.266-.038,1.978,1.978,0,0,1-.152-.142l-2.323-3.053h-4.75v2.92a.286.286,0,0,1-.322.322h-1.593c-.228,0-.332-.1-.332-.322v-9.509a.4.4,0,0,1,.446-.446Zm-6.077,5.243h5.622a1.384,1.384,0,0,0,1.052-.322,1.353,1.353,0,0,0,.313-.986v-.616a1.368,1.368,0,0,0-.313-.986,1.454,1.454,0,0,0-1.052-.322h-5.433c-.133,0-.19.057-.19.18Z" transform="translate(-1059.797 -141.843)"/><path class="a" d="M1327.605,156.8a.286.286,0,0,1,.323.322v5.859a4.056,4.056,0,0,0,.095.977,1.274,1.274,0,0,0,.323.616,1.177,1.177,0,0,0,.6.322,3.849,3.849,0,0,0,.948.095h4.068a4.3,4.3,0,0,0,.948-.095,1.207,1.207,0,0,0,.6-.322,1.229,1.229,0,0,0,.313-.616,4.663,4.663,0,0,0,.085-.977v-5.859a.286.286,0,0,1,.322-.322h1.6a.286.286,0,0,1,.323.322V163.2a6.647,6.647,0,0,1-.218,1.8,2.774,2.774,0,0,1-.711,1.2,2.848,2.848,0,0,1-1.28.673,7.329,7.329,0,0,1-1.9.209h-4.238a7.2,7.2,0,0,1-1.887-.209,2.971,2.971,0,0,1-1.271-.673,2.785,2.785,0,0,1-.72-1.2,6.211,6.211,0,0,1-.228-1.8v-6.077a.293.293,0,0,1,.332-.322Z" transform="translate(-1200.011 -141.934)"/><path class="a" d="M1496.344,156.8a4.73,4.73,0,0,1,.559.038,1.124,1.124,0,0,1,.407.171,1.79,1.79,0,0,1,.322.332,3.5,3.5,0,0,1,.285.569l3.053,7.044a.209.209,0,0,0,.209.133h.18a.213.213,0,0,0,.209-.133l3.053-7.044a3.93,3.93,0,0,1,.284-.569.985.985,0,0,1,.322-.332,1,1,0,0,1,.4-.171,2.38,2.38,0,0,1,.55-.038h1.574a1.274,1.274,0,0,1,1.033.341,1.954,1.954,0,0,1,.266,1.176v8.429a.293.293,0,0,1-.332.322H1507.2a.286.286,0,0,1-.322-.322v-7.67c0-.095-.038-.152-.114-.152h-.133a.182.182,0,0,0-.19.114l-2.958,6.58a3.983,3.983,0,0,1-.36.673,2.711,2.711,0,0,1-.389.455,1.321,1.321,0,0,1-.484.256,2.483,2.483,0,0,1-.635.076h-.7a2.483,2.483,0,0,1-.635-.076,1.193,1.193,0,0,1-.484-.256,1.854,1.854,0,0,1-.389-.455,3.637,3.637,0,0,1-.36-.673l-2.958-6.58c-.028-.085-.085-.114-.19-.114h-.133c-.085,0-.114.047-.114.152v7.67a.286.286,0,0,1-.322.322h-1.5c-.228,0-.332-.1-.332-.322v-8.429a1.935,1.935,0,0,1,.266-1.176,1.272,1.272,0,0,1,1.043-.341Z" transform="translate(-1351.902 -141.934)"/><g transform="translate(0.016)"><path class="a" d="M68.627,72.7l-1.939,5.31a.634.634,0,0,0,0,.459l3.333,9.139,3.853-2.226L69.249,72.7a.333.333,0,0,0-.622,0" transform="translate(-47.936 -49.658)"/><path class="a" d="M79.59,44.325a.333.333,0,0,0-.622,0l-1.939,5.31a.633.633,0,0,0,0,.459l5.457,14.964,3.853-2.226Z" transform="translate(-55.021 -30.221)"/><path class="a" d="M24.955,2.479a.571.571,0,0,1,.278.073l14.694,8.485a.547.547,0,0,1,.278.474V28.48a.547.547,0,0,1-.278.474L25.234,37.448a.544.544,0,0,1-.278.073.567.567,0,0,1-.278-.073L9.992,28.963a.547.547,0,0,1-.278-.474V11.511a.546.546,0,0,1,.278-.474L24.686,2.552a.538.538,0,0,1,.27-.073m0-2.479a3.022,3.022,0,0,0-1.513.409L8.747,8.893a3.031,3.031,0,0,0-1.513,2.618V28.48a3.045,3.045,0,0,0,1.513,2.627l14.695,8.484a3,3,0,0,0,3.027,0l14.694-8.484a3.017,3.017,0,0,0,1.513-2.627V11.511a3.044,3.044,0,0,0-1.513-2.626L26.477.409A3.077,3.077,0,0,0,24.955,0" transform="translate(-7.235)"/><path class="a" d="M32.67,102.633l1.35-3.7,2.716,2.258L34.2,103.518Z" transform="translate(-24.661 -67.779)"/><path class="a" d="M32.767,32.709H29.041a.655.655,0,0,0-.622.433L20.434,55.037l3.853,2.226,8.8-24.112a.333.333,0,0,0-.207-.424.34.34,0,0,0-.112-.018" transform="translate(-16.278 -22.408)"/><path class="a" d="M51,32.7H47.275a.655.655,0,0,0-.622.433l-9.122,25,3.853,2.226,9.924-27.212a.333.333,0,0,0-.2-.429A.342.342,0,0,0,51,32.7" transform="translate(-27.991 -22.401)"/></g></g></g></g></svg>