<svg xmlns="http://www.w3.org/2000/svg" xmlns:xlink="http://www.w3.org/1999/xlink" width="81.159" height="40" viewBox="0 0 81.159 40"><defs><style>.a{fill:rgba(18,19,18,0.3);}.b{clip-path:url(#a);}</style><clipPath id="a"><rect class="a" width="81.159" height="40"/></clipPath></defs><g class="b"><path class="a" d="M45.955,30.912v8.82H41.4V33.622l-5.191.6c-1.14.131-1.642.5-1.642,1.191,0,1.006.952,1.43,2.994,1.43a15.7,15.7,0,0,0,3.841-.5l-2.358,3.337a12.957,12.957,0,0,1-2.86.317c-4.131,0-6.489-1.642-6.489-4.555,0-2.57,1.854-3.919,6.065-4.4l5.564-.647c-.3-1.618-1.521-2.32-3.949-2.32a16.619,16.619,0,0,0-7.044,1.669l.716-3.946a18.014,18.014,0,0,1,6.886-1.325c5.3,0,8.026,2.2,8.026,6.436ZM4.979,19.868,0,39.733H4.979L7.45,29.751l4.284,5.135h5.191l4.284-5.135,2.471,9.982h4.979L23.679,19.866,14.328,30.971,4.976,19.866ZM23.679,0,14.328,11.107,4.979,0,0,19.868H4.979L7.45,9.886l4.284,5.135h5.191l4.284-5.135,2.471,9.982h4.979ZM57.928,30.727,53.9,30.145c-1.006-.158-1.4-.477-1.4-1.033,0-.9.979-1.3,2.994-1.3a15.038,15.038,0,0,1,6.623,1.51l-.555-3.893a17.763,17.763,0,0,0-5.934-.952c-4.952,0-7.656,1.722-7.656,4.821,0,2.412,1.483,3.761,4.636,4.239l4.08.609c1.033.158,1.457.555,1.457,1.191,0,.9-.952,1.325-2.887,1.325a17.96,17.96,0,0,1-7.549-1.7l.451,3.893A20.583,20.583,0,0,0,54.966,40c5.086,0,7.734-1.776,7.734-4.928,0-2.516-1.483-3.868-4.767-4.343Zm6.543,9.005h4.555V21.641H64.471ZM74.348,31.6l6.334-6.862H75.013l-5.987,7.1L75.41,39.73h5.749L74.348,31.6ZM63.835,15.576c0,2.913,2.358,4.555,6.489,4.555a13.121,13.121,0,0,0,2.86-.317l2.358-3.337a15.827,15.827,0,0,1-3.841.5c-2.039,0-2.994-.424-2.994-1.43,0-.689.5-1.06,1.642-1.191l5.191-.6v6.111h4.555v-8.82c0-4.239-2.728-6.436-8.026-6.436a18,18,0,0,0-6.886,1.325l-.716,3.946A16.619,16.619,0,0,1,71.51,8.215c2.428,0,3.648.7,3.949,2.32l-5.564.647c-4.212.478-6.065,1.827-6.065,4.4ZM51.1,14.624c0,3.656,2.119,5.51,6.3,5.51a10.066,10.066,0,0,0,4.37-.874l.582-4a7.457,7.457,0,0,1-3.868,1.164c-1.961,0-2.835-.794-2.835-2.57v-5.3h6.913V4.875H55.648V1.75L46.986,6.332V8.556h4.1v6.065Zm-4.477-1.669v.9H34.308c.555,1.835,2.205,2.675,5.134,2.675a14.8,14.8,0,0,0,6.436-1.4L45.322,19a16.893,16.893,0,0,1-6.331,1.14c-6.119,0-9.456-2.7-9.456-7.707s3.391-7.815,8.635-7.815,8.45,3.047,8.45,8.343ZM34.249,10.782h7.785c-.41-1.757-1.76-2.675-3.917-2.675S34.681,9,34.249,10.782" transform="translate(0 -0.001)"/></g></svg>