<svg xmlns="http://www.w3.org/2000/svg" xmlns:xlink="http://www.w3.org/1999/xlink" width="248.362" height="40" viewBox="0 0 248.362 40"><defs><style>.a{fill:none;}.b{fill:#121312;}.c{opacity:0.3;}.d{clip-path:url(#a);}.e{fill:#202020;}.f{clip-path:url(#b);}</style><clipPath id="a"><rect class="a" width="248.18" height="26.584" transform="translate(0 0.001)"/></clipPath><clipPath id="b"><rect class="b" width="248.18" height="26.584" transform="translate(0 0.001)"/></clipPath></defs><g class="c" transform="translate(-2806 -1217)"><rect class="a" width="248" height="40" transform="translate(2806 1217)"/><g transform="translate(2806.182 1223.708)"><g class="d"><path class="e" d="M73.707,2.679,69.569,20.255,65.076,2.678H61.191L56.764,20.223,52.591,2.678h-4.01l5.809,22.29h4.3L63.15,7.739l4.43,17.228h4.3L77.687,2.679h-3.98ZM91.315,21.336v-6.88c0-3.886-2.184-5.952-6.548-5.952-3.85,0-6.708,1.877-7.156,5.447h3.722c.226-1.75,1.475-2.642,3.4-2.642s2.888,1.05,2.888,2.356c0,.734-.288,1.336-1.475,1.53l-3.115.444c-2.73.444-6,1.336-6,5.095,0,2.8,2.056,4.65,5.233,4.65a6.6,6.6,0,0,0,5.649-2.8v.352c0,1.244,1.028,2.04,2.662,2.04h2.375v-2.9h-.868a.715.715,0,0,1-.771-.734v-.009Zm-3.69-3.5c0,2.643-1.574,4.744-4.139,4.744-1.6,0-2.663-.8-2.663-2.229s.9-2.132,2.92-2.483l2.406-.414a5.654,5.654,0,0,0,1.475-.479v.862ZM98.21,2.679H94.488V24.968H98.21Zm6.343,0h-3.722V24.968h3.722ZM114.194,8.5c-4.816,0-7.864,3.631-7.864,8.44s3.048,8.436,7.864,8.436c4.236,0,6.739-2.387,7.253-5.446h-3.659a3.42,3.42,0,0,1-3.563,2.545c-2.693,0-3.947-1.974-4.173-4.616h11.586c.257-6.941-3.208-9.363-7.444-9.363Zm-4.076,6.88c.355-2.26,1.6-4.014,4.076-4.014,2.247,0,3.594,1.21,3.789,4.014ZM128.2,20.193V11.758h3.465V8.922H128.2V3.6h-3.721V8.126a.715.715,0,0,1-.771.8h-1.764v2.835h2.535v9.236c0,2.77,1.378,3.979,4.076,3.979h3.5v-2.9h-2.18c-1.254,0-1.67-.541-1.67-1.877Zm15.692,1.877c-3.881,0-6.353-3.407-6.353-8.247s2.4-8.246,6.353-8.246c3.048,0,4.94,2,5.49,4.936h4.045c-.514-4.743-3.851-8.247-9.531-8.247-6,0-10.429,4.524-10.429,11.557S137.831,25.38,143.9,25.38c5.069,0,8.857-2.738,9.726-8.343h-4.046a5.581,5.581,0,0,1-5.68,5.029l0,0M162.7,8.5c-5.037,0-7.957,3.631-7.957,8.44s2.92,8.436,7.957,8.436,7.927-3.6,7.927-8.436S167.739,8.5,162.7,8.5m0,13.883c-2.986,0-4.138-2.58-4.138-5.478S159.72,11.5,162.7,11.5s4.139,2.545,4.139,5.411S165.683,22.387,162.7,22.387ZM181.442,8.5a6.2,6.2,0,0,0-5.361,2.836V8.922h-3.722v16.05h3.722V15.928a4.083,4.083,0,0,1,4.01-4.33c2.056,0,3.4,1.336,3.4,3.758v9.619h3.722V14.913c0-4.075-2.149-6.4-5.777-6.4Zm17.347,0a6.2,6.2,0,0,0-5.361,2.836V8.922h-3.722v16.05h3.722V15.928a4.083,4.083,0,0,1,4.009-4.33c2.056,0,3.4,1.336,3.4,3.758v9.619h3.722V14.913c0-4.075-2.149-6.4-5.778-6.4Zm15.258,0c-4.816,0-7.864,3.631-7.864,8.44s3.048,8.436,7.864,8.436c4.236,0,6.739-2.387,7.253-5.446h-3.66a3.418,3.418,0,0,1-3.562,2.545c-2.694,0-3.948-1.974-4.174-4.616H221.49c.257-6.941-3.207-9.363-7.443-9.363Zm-4.076,6.88c.354-2.26,1.6-4.014,4.076-4.014,2.246,0,3.593,1.21,3.788,4.014ZM230.378,11.5a3.489,3.489,0,0,1,3.5,3.152h3.752c-.482-3.886-3.207-6.146-7.221-6.146-4.879,0-7.958,3.631-7.958,8.44s3.079,8.436,7.958,8.436c4.2,0,6.707-2.356,7.221-5.794h-3.721a3.387,3.387,0,0,1-3.531,2.8c-2.792,0-4.108-2.514-4.108-5.477S227.586,11.5,230.378,11.5ZM246,22.07c-1.254,0-1.671-.54-1.671-1.877V11.758h3.465V8.922H244.33V3.6h-3.721V8.126a.715.715,0,0,1-.771.8h-1.764v2.835h2.535v9.236c0,2.77,1.377,3.979,4.076,3.979h3.495v-2.9H246ZM31.771,10.2l3.815-3.785c-8.622-8.554-19.335-8.554-27.957,0L11.444,10.2C18,3.695,25.218,3.695,31.776,10.2Z"/><path class="b" d="M30.5,19.019l-8.9-8.827-8.9,8.827-8.9-8.827L0,13.972,12.707,26.585l8.9-8.827,8.9,8.827L43.207,13.973l-3.81-3.78-8.9,8.825Z"/></g></g><g transform="translate(2806.182 1240.708)"><g class="f" transform="translate(0 -17)"><path class="b" d="M31.771,10.2l3.815-3.785c-8.622-8.554-19.335-8.554-27.957,0L11.444,10.2C18,3.695,25.218,3.695,31.776,10.2Z"/></g></g></g></svg>