<svg xmlns="http://www.w3.org/2000/svg" xmlns:xlink="http://www.w3.org/1999/xlink" width="133" height="40" viewBox="0 0 133 40"><defs><style>.a{fill:none;}.b{opacity:0.3;}.c{clip-path:url(#a);}.d{fill:#121312;}</style><clipPath id="a"><rect class="a" width="132.925" height="22.562"/></clipPath></defs><g class="b" transform="translate(-2450 -1217)"><rect class="a" width="133" height="40" transform="translate(2450 1217)"/><g transform="translate(2450 1225.719)"><g class="c" transform="translate(0 0)"><path class="d" d="M325.6,11.683v7.543c0,3.213,0,3.213-3.281,3.213-3.524,0-3.524,0-3.524-3.425,0-5.795.026-11.59-.026-17.385-.01-1.136.264-1.582,1.489-1.5,1.824.126,3.952-.472,5.408.273,1.4.715,2.1,2.747,3.1,4.205,1.054,1.535,2.1,3.076,3.148,4.614.24.351.406.783,1.06.876,0-2.851.044-5.663-.022-8.472-.025-1.094.178-1.614,1.451-1.5A32.141,32.141,0,0,0,338.7.14c.861-.038,1.067.315,1.065,1.083q-.026,10.086,0,20.172c0,.791-.276,1.163-1.1,1.046a.981.981,0,0,0-.134,0c-1.611-.014-3.416.416-4.779-.166s-1.942-2.42-2.866-3.707c-1.422-1.981-2.817-3.981-4.236-5.965-.241-.337-.369-.808-1.054-.92" transform="translate(-233.112 -0.017)"/><path class="d" d="M197.96,11.581c0-3.272.031-6.544-.019-9.815-.015-.986.186-1.432,1.316-1.361a43.543,43.543,0,0,0,4.964,0c1.055-.055,1.272.36,1.262,1.3-.041,4.067.01,8.135-.039,12.2-.012,1,.2,1.411,1.33,1.363,2.233-.095,4.474,0,6.711-.044.91-.02,1.293.231,1.255,1.194-.066,1.677-.059,3.361,0,5.039.033.99-.339,1.264-1.328,1.253q-7.047-.074-14.1,0c-1.056.013-1.394-.274-1.375-1.324.058-3.271.021-6.543.021-9.815" transform="translate(-144.75 -0.292)"/><path class="d" d="M97.781,11.486c0-3.228.049-6.456-.026-9.682C97.728.665,98.115.357,99.208.423c1.427.086,2.863.021,4.295.021,1.778,0,1.779,0,1.78,1.7,0,1.415.1,2.839-.031,4.241-.124,1.31.409,1.574,1.588,1.508,1.561-.087,3.132.014,4.7-.033.907-.027,1.308.269,1.282,1.21-.046,1.679-.051,3.361,0,5.039.03.968-.419,1.211-1.3,1.19-1.7-.04-3.4.023-5.1-.028-.859-.026-1.2.222-1.16,1.121.067,1.677-.011,3.36.035,5.039.026.936-.243,1.355-1.289,1.3a47.8,47.8,0,0,0-4.965,0c-1.056.057-1.285-.366-1.275-1.3.037-3.316.015-6.632.015-9.948" transform="translate(-71.486 -0.304)"/><path class="d" d="M410.8,11.667c0-3.228.035-6.455-.019-9.682C410.767.855,411.1.4,412.314.478a42.978,42.978,0,0,0,4.83,0c.94-.047,1.162.358,1.153,1.154-.019,1.68.053,3.363-.031,5.039-.052,1.026.336,1.3,1.308,1.271,1.7-.059,3.4.017,5.1-.034.826-.025,1.144.312,1.142,1.073,0,1.768-.016,3.537,0,5.305.008.779-.3,1.094-1.122,1.07-1.7-.05-3.4.043-5.1-.035-1.092-.05-1.389.34-1.329,1.378.09,1.542-.037,3.1.046,4.64.063,1.172-.356,1.532-1.532,1.452a39.518,39.518,0,0,0-4.7-.005c-1.042.053-1.3-.369-1.293-1.307.035-3.271.013-6.543.013-9.815" transform="translate(-300.403 -0.345)"/><path class="d" d="M281.767,11.662c0,3.267-.022,6.534.015,9.8.011.946-.258,1.34-1.294,1.287-1.649-.084-3.307-.063-4.958-.006-.908.031-1.3-.261-1.3-1.186q.025-10,0-20c0-.87.341-1.138,1.2-1.112,1.741.053,3.487.065,5.227,0,.926-.037,1.136.334,1.129,1.154-.028,3.355-.012,6.71-.011,10.066" transform="translate(-200.539 -0.323)"/><path class="d" d="M157.05.111c1.154.227,2.705-.553,3.52.351.74.821.22,2.3.231,3.485.032,3.619.011,3.651-3.635,3.6-1.23-.017-2.791.568-3.606-.284-.749-.784-.241-2.291-.223-3.474s-.553-2.668.273-3.439c.753-.7,2.227-.11,3.439-.24" transform="translate(-111.999 0)"/><path class="d" d="M474.155,4.209c.01,3.754.01,3.754-3.742,3.754-.8,0-1.61-.044-2.41.011-.953.066-1.394-.243-1.36-1.257.057-1.674.028-3.352.009-5.027-.009-.81.266-1.2,1.172-1.171,1.784.056,3.571.048,5.356,0,.713-.018.97.279.974.911.005.926,0,1.852,0,2.778" transform="translate(-341.25 -0.38)"/><path class="d" d="M157.264,63.555a16.311,16.311,0,0,0-2.011.014c-1.209.15-1.687-.254-1.608-1.509.1-1.585.051-3.181.015-4.772-.018-.808.189-1.217,1.122-1.184,1.743.061,3.489.034,5.234.008.76-.011,1.177.208,1.162,1.047-.031,1.767-.028,3.536,0,5.3.013.873-.384,1.157-1.229,1.106-.891-.055-1.789-.012-2.684-.013" transform="translate(-112.352 -41.14)"/><path class="d" d="M470.447,63.655c-.893,0-1.788-.042-2.677.012-.839.051-1.1-.323-1.091-1.087q.033-2.579,0-5.16c-.009-.81.275-1.213,1.174-1.19q2.609.068,5.222,0c.827-.023,1.127.305,1.12,1.076-.014,1.764-.026,3.528.006,5.292.016.874-.373,1.136-1.211,1.073s-1.7-.014-2.543-.014" transform="translate(-341.277 -41.231)"/><path class="d" d="M22.546,1.521c0-.8-.293-1.064-1.1-1.061Q11.237.5,1.031.454C.164.45-.007.76,0,1.529.034,4.846.015,8.163.015,11.48.014,14.885.032,18.291,0,21.7c-.008.779.2,1.073,1.049,1.069q10.206-.049,20.412,0c.83,0,1.086-.289,1.085-1.074q-.028-10.083,0-20.167M15.043,14.3c.008.737-.319,1.026-1.051,1.018q-2.749-.031-5.5,0c-.67.008-.992-.241-.987-.925.014-1.855.016-3.71,0-5.564-.006-.672.267-.963.958-.941.938.03,1.877.007,2.816.007.894,0,1.789.018,2.682-.006.7-.019,1.093.208,1.083.978q-.035,2.715,0,5.431" transform="translate(0 -0.333)"/></g></g></g></svg>