<svg xmlns="http://www.w3.org/2000/svg" xmlns:xlink="http://www.w3.org/1999/xlink" width="175.217" height="40" viewBox="0 0 175.217 40"><defs><style>.a{fill:#121312;}.b{opacity:0.3;}.c{fill:none;}.d{clip-path:url(#a);}</style><clipPath id="a"><rect class="a" width="175.217" height="30.118"/></clipPath></defs><g class="b" transform="translate(-305 -1217)"><rect class="c" width="175" height="40" transform="translate(305 1217)"/><g transform="translate(305 1221.941)"><path class="a" d="M24.756.4l-4.335.8L17.683,5.534,15.857,9.071l-3.422,3.421v1.825L9.7,16.942l-.8-.8L1.711,19.566,0,20.478v3.537l1.939.913,3.422-1.6,4.335.684v3.422l2.738.913,3.422-3.537H18.6v1.825l-.913,1.711,1.255,1.711,4.107-1.711-.912-2.624.912-4.449h1.711v1.711l2.624,1.027.913,2.624,1.825,1.711,1.711-1.711,5.362-1.825-1.825-1.825-1.711-3.422H31.829l.913,2.624.913.8-1.825,1.825H30.118l-1.825-3.537V19.566l-3.537-3.422,1.825-1.825-3.537-3.537,1.711-1.71V5.534l1.825-1.711,2.624,2.624-.913,2.625,1.825,1.71,3.537,5.362,3.537,1.6L41.64,22.19l2.624.8v1.825h1.711L47.8,22.988l-3.538-1.711-.913-2.51L40.727,17.74l-5.362-3.422L30.118,9.071V5.534L26.581,2.111V.4Z" transform="translate(0 0.056)"/><path class="a" d="M53.68,0,48.888,2.4V24.87l4.791.114Z" transform="translate(6.885 0)"/><g transform="translate(0 0)"><g class="d"><path class="a" d="M72.431,24.053H67.64v-9.7c0-3.194-1.141-4.107-3.08-4.107s-3.08.913-3.08,4.107v9.811H56.688V6.142h4.791V7.4A5.75,5.75,0,0,1,65.7,5.8c4.677,0,6.731,3.08,6.731,8.214Z" transform="translate(7.983 0.817)"/><path class="a" d="M89.913,6.1l-6.5,17.911H78.5L71.888,6.1h5.248l2.624,8.328c.456,1.369.913,3.08,1.141,3.879.228-.913.684-2.51,1.141-3.879L84.665,6.1Z" transform="translate(10.124 0.859)"/><path class="a" d="M97.415,24.409c-5.362,0-9.127-3.651-9.127-9.355,0-5.476,3.879-9.355,8.67-9.355,5.134,0,8.328,4.221,8.328,9.355a6.027,6.027,0,0,1-.114,1.483H93.308a3.968,3.968,0,0,0,4.221,3.422,4.192,4.192,0,0,0,3.308-1.6l3.651,2.624a8.716,8.716,0,0,1-7.073,3.422m3.08-11.294a3.457,3.457,0,0,0-3.651-3.194,3.768,3.768,0,0,0-3.537,3.194Z" transform="translate(12.433 0.803)"/><path class="a" d="M113.16,20.4c1.825,0,2.852-.684,2.852-1.6,0-1.255-1.939-1.483-2.852-1.711-3.537-.684-7.758-1.255-7.758-5.818,0-3.308,3.537-5.476,7.529-5.476a13.711,13.711,0,0,1,6.731,2.053l-2.4,3.308a10.5,10.5,0,0,0-4.335-1.369c-2.054,0-2.852.456-2.852,1.255,0,1.255,2.624,1.483,3.993,1.825,3.308.8,6.617,1.711,6.617,5.818,0,3.765-3.879,5.818-7.758,5.818A14.856,14.856,0,0,1,105.288,22l2.4-3.194a11.714,11.714,0,0,0,5.476,1.6" transform="translate(14.827 0.817)"/><path class="a" d="M130.157,10.249a4.723,4.723,0,0,0-4.677,4.791,4.652,4.652,0,0,0,4.677,4.791,4.734,4.734,0,0,0,3.879-2.053l3.765,2.738a9.722,9.722,0,0,1-7.644,3.879,9.326,9.326,0,0,1-9.469-9.241A9.422,9.422,0,0,1,130.157,5.8a9.263,9.263,0,0,1,7.758,3.993l-3.765,2.738a4.745,4.745,0,0,0-3.993-2.282" transform="translate(16.996 0.817)"/><path class="a" d="M155.926,15.155a9.472,9.472,0,0,1-18.938,0,9.47,9.47,0,0,1,18.938,0m-4.791,0a4.679,4.679,0,1,0-9.355,0,4.652,4.652,0,0,0,4.677,4.791,4.721,4.721,0,0,0,4.677-4.791" transform="translate(19.291 0.817)"/></g></g></g></g></svg>